<svg width="30" height="30" viewBox="0 0 30 30" fill="none" xmlns="http://www.w3.org/2000/svg">
<path opacity="0.2" d="M25.9758 10.5869L22.5 14.0627L15.9375 7.50015L19.4133 4.02437C19.5891 3.84869 19.8274 3.75 20.076 3.75C20.3245 3.75 20.5629 3.84869 20.7387 4.02437L25.9758 9.25796C26.0633 9.34507 26.1327 9.44862 26.1801 9.56264C26.2275 9.67667 26.2519 9.79893 26.2519 9.92242C26.2519 10.0459 26.2275 10.1682 26.1801 10.2822C26.1327 10.3962 26.0633 10.4998 25.9758 10.5869Z" fill="#BCBDBF"/>
<path d="M26.6391 8.59776L21.402 3.36183C21.2278 3.18767 21.0211 3.04952 20.7936 2.95527C20.5661 2.86101 20.3222 2.8125 20.076 2.8125C19.8297 2.8125 19.5859 2.86101 19.3583 2.95527C19.1308 3.04952 18.9241 3.18767 18.75 3.36183L4.29961 17.8122C4.12474 17.9857 3.9861 18.1922 3.89175 18.4197C3.7974 18.6473 3.74921 18.8913 3.75 19.1376V24.3747C3.75 24.872 3.94754 25.3489 4.29917 25.7005C4.65081 26.0522 5.12772 26.2497 5.625 26.2497H10.8621C11.1084 26.2505 11.3524 26.2023 11.58 26.108C11.8075 26.0136 12.014 25.875 12.1875 25.7001L21.9926 15.8962L22.4004 17.5251L18.0879 21.8364C17.912 22.0122 17.8131 22.2506 17.813 22.4993C17.8129 22.748 17.9115 22.9865 18.0873 23.1624C18.2631 23.3383 18.5015 23.4372 18.7502 23.4373C18.9988 23.4374 19.2374 23.3388 19.4133 23.163L24.1008 18.4755C24.2154 18.3611 24.2985 18.2189 24.3418 18.0628C24.3851 17.9067 24.3873 17.742 24.348 17.5849L23.5395 14.3493L26.6391 11.2497C26.8132 11.0756 26.9514 10.8689 27.0456 10.6414C27.1399 10.4139 27.1884 10.17 27.1884 9.92374C27.1884 9.67748 27.1399 9.43362 27.0456 9.20611C26.9514 8.9786 26.8132 8.77188 26.6391 8.59776ZM5.625 24.3747V21.0126L8.98711 24.3747H5.625ZM11.25 23.9868L6.01289 18.7497L15.9375 8.82511L21.1746 14.0622L11.25 23.9868ZM22.5 12.7368L17.2641 7.49972L20.0766 4.68722L25.3125 9.92433L22.5 12.7368Z" fill="#BCBDBF"/>
</svg>
