<svg width="32" height="32" viewBox="0 0 32 32" fill="none" xmlns="http://www.w3.org/2000/svg">
<g clip-path="url(#clip0_1_670)">
<path d="M32 16C32 7.16344 24.8366 0 16 0C7.16344 0 0 7.16344 0 16C0 24.8366 7.16344 32 16 32C24.8366 32 32 24.8366 32 16Z" fill="white"/>
<path d="M16 8.5C17.9466 10.2221 20.4871 11.1188 23.0834 11C23.4614 12.2858 23.577 13.6346 23.4235 14.966C23.2699 16.2974 22.8503 17.5844 22.1895 18.7504C21.5288 19.9165 20.6404 20.9378 19.5771 21.7537C18.5138 22.5696 17.2973 23.1635 16 23.5M16 8.5C14.0535 10.2221 11.513 11.1188 8.91669 11C8.5387 12.2858 8.42304 13.6346 8.57659 14.966C8.73014 16.2974 9.14976 17.5844 9.81052 18.7504C10.4713 19.9165 11.3597 20.9378 12.423 21.7537C13.4863 22.5696 14.7027 23.1635 16 23.5M16 8.5V23.5M8.91669 16H23.0834" stroke="#232323" stroke-linecap="round" stroke-linejoin="round"/>
</g>
<defs>
<clipPath id="clip0_1_670">
<rect width="32" height="32" fill="white"/>
</clipPath>
</defs>
</svg>
