<svg width="40" height="41" viewBox="0 0 40 41" fill="none" xmlns="http://www.w3.org/2000/svg">
<g clip-path="url(#clip0_1_1083)">
<path d="M20 40.0283C30.7696 40.0283 39.5 31.2979 39.5 20.5283C39.5 9.75877 30.7696 1.02832 20 1.02832C9.23045 1.02832 0.5 9.75877 0.5 20.5283C0.5 31.2979 9.23045 40.0283 20 40.0283Z" stroke="#D1DADE"/>
<path fill-rule="evenodd" clip-rule="evenodd" d="M15.6295 13.3633H9V27.4258H15.8192C16.34 27.4258 16.8385 27.3775 17.3147 27.2807C17.7909 27.184 18.2411 27.0278 18.6652 26.812C19.0893 26.5962 19.4557 26.3321 19.7645 26.0196C20.0733 25.7071 20.3188 25.322 20.5011 24.8645C20.6834 24.4069 20.7746 23.8991 20.7746 23.341C20.7746 22.4407 20.5588 21.6818 20.1272 21.0642C19.6957 20.4467 19.0558 20.0188 18.2076 19.7807C19.4874 19.1706 20.1272 18.1922 20.1272 16.8455C20.1272 16.1684 20.01 15.5955 19.7757 15.1267C19.5413 14.658 19.2065 14.299 18.7712 14.0497C18.3359 13.8005 17.8653 13.6238 17.3594 13.5196C16.8534 13.4154 16.2768 13.3633 15.6295 13.3633ZM23.9219 14.3116H29.625V15.6955H23.9219V14.3116ZM25.183 19.6524C25.5997 19.2618 26.1429 19.0665 26.8125 19.0665C28.1667 19.0665 28.9107 19.7919 29.0446 21.2428H24.4911C24.5357 20.5732 24.7664 20.043 25.183 19.6524ZM26.9911 25.5955C27.4598 25.5955 27.9137 25.4764 28.3527 25.2383C28.7917 25.0002 29.0744 24.6766 29.2009 24.2674H31.6674C30.9234 26.5516 29.3348 27.6937 26.9018 27.6937C25.3095 27.6937 24.0428 27.2026 23.1016 26.2205C22.1603 25.2383 21.6897 23.9474 21.6897 22.3477C21.6897 20.8001 22.1752 19.5148 23.1462 18.4917C24.1172 17.4686 25.369 16.9571 26.9018 16.9571C27.9286 16.9571 28.8233 17.2101 29.5859 17.716C30.3486 18.222 30.9178 18.8879 31.2935 19.7138C31.6693 20.5397 31.8571 21.4623 31.8571 22.4816C31.8571 22.6081 31.8497 22.783 31.8348 23.0062H24.4911C24.4911 23.8321 24.705 24.4701 25.1328 24.9203C25.5606 25.3704 26.1801 25.5955 26.9911 25.5955ZM15.3951 25.0379H12.0915V21.1651H15.4621C16.9427 21.1651 17.683 21.8347 17.683 23.174C17.683 24.4166 16.9204 25.0379 15.3951 25.0379ZM12.0915 19.0441H15.2277C15.808 19.0441 16.2675 18.9084 16.606 18.6368C16.9446 18.3652 17.1138 17.943 17.1138 17.37C17.1138 16.2986 16.407 15.7629 14.9933 15.7629H12.0915V19.0441Z" fill="#00B2A9"/>
</g>
<defs>
<clipPath id="clip0_1_1083">
<rect width="40" height="41" fill="white"/>
</clipPath>
</defs>
</svg>
