<svg width="40" height="40" viewBox="0 0 40 40" fill="none" xmlns="http://www.w3.org/2000/svg">
<path d="M16.6667 15.0167L16.6833 14.9983M23.3333 15.0167L23.35 14.9983M16.6667 21.6833L16.6833 21.665M23.3333 21.6833L23.35 21.665M16.6667 28.35L16.6833 28.3317M23.3333 28.35L23.35 28.3317M10 34V9.33333C10 9.06812 10.1054 8.81376 10.2929 8.62623C10.4804 8.43869 10.7348 8.33333 11 8.33333H20V6C20 5.73478 20.1054 5.48043 20.2929 5.29289C20.4804 5.10536 20.7348 5 21 5H29C29.2652 5 29.5196 5.10536 29.7071 5.29289C29.8946 5.48043 30 5.73478 30 6V34C30 34.2652 29.8946 34.5196 29.7071 34.7071C29.5196 34.8946 29.2652 35 29 35H11C10.7348 35 10.4804 34.8946 10.2929 34.7071C10.1054 34.5196 10 34.2652 10 34Z" stroke="#FFEFD4" stroke-width="2.5" stroke-linecap="round" stroke-linejoin="round"/>
</svg>
