<svg width="205" height="43" viewBox="0 0 205 43" fill="none" xmlns="http://www.w3.org/2000/svg">
<g clip-path="url(#clip0_1_718)">
<path d="M35.9127 14.8727H37.3024L37.2008 14.7702C34.523 8.17701 28.1845 3.8385 21.1003 3.8385C11.44 3.8385 3.61011 11.7298 3.61011 21.4658C3.61011 31.2019 11.44 39.0932 21.1003 39.0932C25.6084 39.0932 30.0149 37.3509 33.235 34.1056C36.455 30.8602 38.3871 26.6584 38.4888 22.1149V22.0124H18.3208V23.3106H37.2008C36.7601 27.3074 34.9636 30.8944 32.0486 33.5932C29.0319 36.2919 25.1678 37.795 21.202 37.795C12.2874 37.795 4.99983 30.4503 4.99983 21.4658C4.99983 12.4814 12.2874 5.13664 21.202 5.13664C27.5405 5.13664 33.3366 8.92857 35.9127 14.8727Z" fill="#232323"/>
<path d="M42.0136 18.9721L21.3033 18.8696V20.1678H40.8273C40.8273 20.6119 40.8273 21.0218 40.8273 21.4659C40.8273 32.5001 31.9127 41.382 21.0661 41.382C10.2195 41.382 1.30488 32.5001 1.30488 21.4659C1.30488 10.4317 10.2195 1.54975 21.0661 1.54975C29.4383 1.54975 36.9632 6.84478 39.7426 14.8386V14.941H41.1323V14.8386C38.2512 6.19571 30.184 0.354093 21.1678 0.354093C9.47375 0.251609 0.0168457 9.7485 0.0168457 21.4317C0.0168457 33.115 9.47375 42.646 21.0661 42.646C32.6584 42.646 42.1153 33.115 42.1153 21.4317C42.1492 20.6119 42.1492 19.8261 42.0136 18.9721Z" fill="#232323"/>
<path d="M21.0991 8.79197C25.5055 8.79197 29.4713 11.0466 31.7084 14.7361H33.1998L33.0981 14.5311C30.6238 10.0901 26.0139 7.39136 21.0652 7.39136C13.4386 7.39136 7.3374 13.6771 7.3374 21.2268C7.3374 28.8106 13.5742 35.0622 21.0652 35.0622C27.302 35.0622 32.6575 30.8603 34.3862 24.882V24.7796H21.3024V26.2827H32.6914C30.7593 31.0311 26.2512 34.0715 21.2007 34.0715C14.2182 34.0715 8.65933 28.3323 8.65933 21.4317C8.65933 14.5311 14.2182 8.79197 21.0991 8.79197Z" fill="#232323"/>
<path d="M89.4684 22.0124C90.4175 21.0559 90.8581 19.7577 90.8581 18.4596C90.8581 15.2143 88.1804 13.3695 86.2483 13.3695H76.0457V14.9751H79.5709V29.9037H81.164V23.413H84.8247C85.6721 24.7111 86.6551 26.1118 87.5025 27.4099L87.6042 27.5124C88.1465 28.2639 88.6888 29.0155 89.1973 29.7671L89.2989 29.972H91.231L86.6212 23.4813C87.6381 23.413 88.7227 22.8664 89.4684 22.0124ZM86.4517 21.9099H81.1979V14.9751H86.2483C87.5364 14.9751 89.3667 16.1708 89.3667 18.4254C89.3667 20.3726 87.7397 21.9099 86.4517 21.9099ZM104.484 13.472H103.4L97.0949 30.0062H98.6881L100.281 25.9068H107.67L109.264 30.0062H110.857L104.484 13.472ZM107.06 24.3695H100.959L104.077 16.2733L107.06 24.3695ZM129.059 27.1024L126.042 23.208C123.669 20.1677 120.991 16.8198 118.517 13.5745L118.415 13.3695H117.026V29.9037H118.619V16.2733L129.465 30.0062H129.669C129.77 30.0062 129.872 30.0062 129.974 30.0062C130.075 30.0062 130.075 30.0062 130.177 30.0062H130.618V13.472H129.025V27.1024H129.059ZM139.905 13.472H141.397V30.0062H139.905V13.472ZM182.41 22.0124C182.41 26.3509 180.817 28.6056 177.597 28.6056C174.275 28.6056 172.547 26.4534 172.547 22.2174V13.472H167.734V14.9751H171.055V18.8695C171.055 20.3726 171.055 21.7733 171.055 22.2174C171.055 27.3074 173.428 30.1087 177.597 30.1087C181.766 30.1087 184.037 27.3074 184.037 22.0124V13.472H182.512V22.0124H182.41ZM197.867 20.8167C195.494 20.3726 192.816 19.7236 192.816 17.7764C192.816 15.7267 195.189 14.736 197.325 14.736C199.155 14.736 200.443 15.2826 201.392 16.3416L201.697 16.649L202.883 15.5559L202.578 15.2484C201.29 13.8478 199.562 13.1987 197.325 13.1987C194.443 13.1987 191.223 14.5993 191.223 17.7422C191.223 20.7826 194.443 21.7391 197.325 22.2857H197.426C197.528 22.2857 197.731 22.3882 197.969 22.3882C199.562 22.6956 201.833 23.0372 201.833 25.1894C201.833 27.7857 198.613 28.5372 197.019 28.5372C195.291 28.5372 193.494 27.7857 192.511 27.1366L192.071 26.8292L191.223 28.1273L191.664 28.3323C192.85 29.1863 194.986 29.9379 197.019 29.9379C197.664 29.9379 199.494 29.8354 201.087 28.9813C202.578 28.1273 203.46 26.8292 203.46 25.0869C203.426 21.6708 199.46 21.1242 197.867 20.8167ZM63.4026 23.208H69.4022C68.7581 26.4534 65.9787 28.8447 62.5213 28.8447C58.6572 28.8447 55.5388 25.7018 55.5388 21.9099C55.5388 18.118 58.6572 14.9751 62.5213 14.9751C65.1991 14.9751 67.7752 16.7174 68.9615 19.177L69.0632 19.4844H70.8936L70.6902 18.8354C69.4022 15.59 66.1821 13.4379 62.6569 13.4379C57.9454 13.4379 54.0813 17.2298 54.0813 21.8757C54.0813 26.5217 57.9454 30.3136 62.6569 30.3136C67.2667 30.3136 71.0292 26.7608 71.2325 22.2174V21.6708H63.4026V23.208ZM157.192 28.708C153.328 28.708 150.21 25.5652 150.21 21.7733C150.21 17.9813 153.328 14.8385 157.192 14.8385C159.022 14.8385 160.853 15.6925 162.141 16.9906C162.581 16.6832 162.988 16.2391 163.429 15.8975C161.836 14.2919 159.565 13.1987 157.192 13.1987C152.481 13.1987 148.616 16.9906 148.616 21.6366C148.616 26.2826 152.481 30.0745 157.192 30.0745C159.768 30.0745 162.141 28.8789 163.734 27.0341L162.446 26.0776C161.26 27.7515 159.327 28.708 157.192 28.708Z" fill="#232323"/>
</g>
<defs>
<clipPath id="clip0_1_718">
<rect width="205" height="43" fill="white"/>
</clipPath>
</defs>
</svg>
