<svg width="40" height="40" viewBox="0 0 40 40" fill="none" xmlns="http://www.w3.org/2000/svg">
<g clip-path="url(#clip0_1_777)">
<mask id="mask0_1_777" style="mask-type:luminance" maskUnits="userSpaceOnUse" x="0" y="0" width="40" height="40">
<path d="M40 20C40 8.9543 31.0457 0 20 0C8.9543 0 0 8.9543 0 20C0 31.0457 8.9543 40 20 40C31.0457 40 40 31.0457 40 20Z" fill="white"/>
</mask>
<g mask="url(#mask0_1_777)">
<path d="M20 40C31.0457 40 40 31.0457 40 20C40 8.9543 31.0457 0 20 0C8.9543 0 0 8.9543 0 20C0 31.0457 8.9543 40 20 40Z" fill="#232323"/>
<path d="M14.4008 20.225V15H19.2351V19.125C19.2351 21.3583 18.9762 22.9667 18.4586 23.95C17.7405 25.3 16.6217 26.3167 15.1021 27L14 25.225C14.9017 24.8583 15.5697 24.2833 16.0039 23.5C16.4547 22.7 16.7052 21.6083 16.7553 20.225H14.4008ZM22.1657 20.225V15H27V19.125C27 21.3583 26.7412 22.9667 26.2235 23.95C25.5055 25.3 24.3866 26.3167 22.8671 27L21.7649 25.225C22.6667 24.8583 23.3346 24.2833 23.7688 23.5C24.2197 22.7 24.4701 21.6083 24.5202 20.225H22.1657Z" fill="white"/>
</g>
</g>
<defs>
<clipPath id="clip0_1_777">
<rect width="40" height="40" fill="white"/>
</clipPath>
</defs>
</svg>
