<svg width="241" height="111" viewBox="0 0 241 111" fill="none" xmlns="http://www.w3.org/2000/svg">
<g opacity="0.6">
<mask id="mask0_1_420" style="mask-type:luminance" maskUnits="userSpaceOnUse" x="50" y="32" width="141" height="48">
<path d="M190.091 32H50.0908V79.3529H190.091V32Z" fill="white"/>
</mask>
<g mask="url(#mask0_1_420)">
<path d="M109.668 56.2839C109.668 62.8566 104.526 67.7 98.2159 67.7C91.9056 67.7 86.7637 62.8566 86.7637 56.2839C86.7637 49.6647 91.9056 44.8677 98.2159 44.8677C104.526 44.8677 109.668 49.6647 109.668 56.2839ZM104.655 56.2839C104.655 52.1765 101.675 49.3662 98.2159 49.3662C94.7571 49.3662 91.7769 52.1765 91.7769 56.2839C91.7769 60.35 94.7571 63.2015 98.2159 63.2015C101.675 63.2015 104.655 60.3449 104.655 56.2839Z" fill="white"/>
<path d="M134.374 56.2839C134.374 62.8566 129.232 67.7 122.922 67.7C116.612 67.7 111.47 62.8566 111.47 56.2839C111.47 49.6699 116.612 44.8677 122.922 44.8677C129.232 44.8677 134.374 49.6647 134.374 56.2839ZM129.361 56.2839C129.361 52.1765 126.381 49.3662 122.922 49.3662C119.463 49.3662 116.483 52.1765 116.483 56.2839C116.483 60.35 119.463 63.2015 122.922 63.2015C126.381 63.2015 129.361 60.3449 129.361 56.2839Z" fill="white"/>
<path d="M158.05 45.5574V66.053C158.05 74.4839 153.078 77.9272 147.2 77.9272C141.667 77.9272 138.337 74.2265 137.081 71.2L141.446 69.3831C142.223 71.2412 144.128 73.4339 147.195 73.4339C150.958 73.4339 153.289 71.1125 153.289 66.7427V65.1008H153.114C151.992 66.4853 149.83 67.6949 147.103 67.6949C141.394 67.6949 136.165 62.7228 136.165 56.325C136.165 49.8809 141.394 44.8677 147.103 44.8677C149.825 44.8677 151.987 46.0772 153.114 47.4206H153.289V45.5625H158.05V45.5574ZM153.644 56.325C153.644 52.3052 150.963 49.3662 147.55 49.3662C144.092 49.3662 141.194 52.3052 141.194 56.325C141.194 60.3037 144.092 63.2015 147.55 63.2015C150.963 63.2015 153.644 60.3037 153.644 56.325Z" fill="white"/>
<path d="M165.899 33.5439V66.9998H161.01V33.5439H165.899Z" fill="white"/>
<path d="M184.954 60.041L188.845 62.6351C187.589 64.4932 184.563 67.6947 179.334 67.6947C172.848 67.6947 168.005 62.6814 168.005 56.2785C168.005 49.4895 172.889 44.8623 178.773 44.8623C184.697 44.8623 187.595 49.577 188.542 52.1248L189.062 53.4219L173.8 59.7425C174.969 62.0329 176.786 63.2013 179.334 63.2013C181.887 63.2013 183.657 61.9454 184.954 60.041ZM172.977 55.9336L183.178 51.6976C182.617 50.2719 180.929 49.2785 178.942 49.2785C176.395 49.2785 172.848 51.5277 172.977 55.9336Z" fill="white"/>
<path d="M68.2546 53.3138V48.4704H84.5759C84.7354 49.3145 84.8178 50.313 84.8178 51.3939C84.8178 55.0277 83.8244 59.5211 80.6229 62.7226C77.509 65.9652 73.5303 67.6946 68.2597 67.6946C58.4906 67.6946 50.2759 59.7373 50.2759 49.9682C50.2759 40.1991 58.4906 32.2417 68.2597 32.2417C73.6641 32.2417 77.5141 34.3623 80.4068 37.1263L76.9891 40.5439C74.9148 38.5983 72.1046 37.0851 68.2546 37.0851C61.1207 37.0851 55.5413 42.8343 55.5413 49.9682C55.5413 57.102 61.1207 62.8513 68.2546 62.8513C72.8818 62.8513 75.5171 60.9932 77.2053 59.3049C78.5744 57.9358 79.4751 55.9799 79.8303 53.3086L68.2546 53.3138Z" fill="white"/>
</g>
</g>
</svg>
