<svg width="40" height="41" viewBox="0 0 40 41" fill="none" xmlns="http://www.w3.org/2000/svg">
<g clip-path="url(#clip0_1_1059)">
<path d="M20 40.0283C30.7696 40.0283 39.5 31.2979 39.5 20.5283C39.5 9.75877 30.7696 1.02832 20 1.02832C9.23045 1.02832 0.5 9.75877 0.5 20.5283C0.5 31.2979 9.23045 40.0283 20 40.0283Z" stroke="#D1DADE"/>
<path d="M24.9886 11.6622V14.6087H23.2363C22.5964 14.6087 22.1649 14.7426 21.9417 15.0105C21.7185 15.2783 21.6069 15.6801 21.6069 16.2158V18.3252H24.877L24.4417 21.6288H21.6069V30.0997H18.1917V21.6288H15.3457V18.3252H18.1917V15.8922C18.1917 14.5082 18.5786 13.4349 19.3524 12.6723C20.1262 11.9096 21.1567 11.5283 22.4439 11.5283C23.5377 11.5283 24.3859 11.573 24.9886 11.6622Z" fill="#00B2A9"/>
</g>
<defs>
<clipPath id="clip0_1_1059">
<rect width="40" height="41" fill="white"/>
</clipPath>
</defs>
</svg>
