<svg width="148" height="30" viewBox="0 0 148 30" fill="none" xmlns="http://www.w3.org/2000/svg">
<g clip-path="url(#clip0_1_1040)">
<mask id="mask0_1_1040" style="mask-type:luminance" maskUnits="userSpaceOnUse" x="0" y="0" width="148" height="30">
<path d="M147.644 0H0V29.5287H147.644V0Z" fill="white"/>
</mask>
<g mask="url(#mask0_1_1040)">
<path fill-rule="evenodd" clip-rule="evenodd" d="M21.66 3.46619C19.1844 0.978579 16.0612 -0.000488281 11.9268 -0.000488281C5.35645 -0.000488281 1.3829 3.86867 1.38188 9.16649C1.24598 11.301 1.96174 13.4019 3.37069 15.004C4.96676 16.4806 7.00445 17.3835 9.16503 17.5715L12.6559 18.0621C13.359 18.1019 14.0293 18.3744 14.5622 18.8374C14.9568 19.3163 15.1562 19.9278 15.1203 20.5487C15.1203 22.2231 13.775 23.1582 10.9838 23.1582C8.67521 23.1582 6.0367 22.6287 4.53669 21.1201L0 25.6908C2.91855 28.7069 6.52957 29.5231 10.9512 29.5242C17.0286 29.5242 22.102 26.3022 22.102 20.4022C22.102 17.7098 21.493 15.5479 19.9523 14.0393C18.3679 12.6413 16.3756 11.7975 14.274 11.6347L10.7852 11.1431C10.0446 11.0953 9.34284 10.793 8.79741 10.2869C8.43844 9.93125 8.23444 9.44691 8.2302 8.94016C8.2302 7.67434 9.24344 6.2467 11.717 6.2467C11.7875 6.2467 11.8615 6.24631 11.9388 6.24591L11.9407 6.2459C13.244 6.23906 15.4718 6.22737 17.1926 7.957L21.66 3.46619ZM45.6398 0.485405V6.84832H38.539V29.5236L31.4463 29.5287V6.84934H24.3485V0.485405H45.6398ZM55.8405 0.486349L63.9109 14.6388L55.3151 29.5235L47.2081 29.5286L56.2071 14.6439L47.7692 0.486349H55.8405ZM116.956 6.22084L122.096 15.4124L127.235 6.22084H130.099L123.422 17.5631L130.578 29.5024L127.715 29.5085L122.098 19.7291L116.439 29.5096L113.646 29.5106L120.732 17.5641L114.094 6.22084H116.956ZM147.644 8.44328V6.2199H131.771V8.44328H138.47V29.5107L140.939 29.5086V8.44328H147.644ZM79.4219 6.2199L91.7203 24.8314V6.2199H94.1959V29.5086H91.8456L79.5522 10.8254V29.5025H77.0797V6.2199H79.4219ZM112.006 8.44533V6.2199H97.6354L97.6344 29.5076H112.016V27.2822H100.102V18.8741H110.24V16.6568H100.092V8.44533H112.006ZM65.7282 17.8469L72.4605 29.5005L64.6926 29.4943L61.9604 24.344L65.7282 17.8469ZM65.8538 11.3934L72.14 0.474084H64.0758L61.9434 4.61771L65.8538 11.3934Z" fill="#292525"/>
</g>
</g>
<defs>
<clipPath id="clip0_1_1040">
<rect width="148" height="30" fill="white"/>
</clipPath>
</defs>
</svg>
