<svg width="40" height="41" viewBox="0 0 40 41" fill="none" xmlns="http://www.w3.org/2000/svg">
<g clip-path="url(#clip0_1_1071)">
<path d="M20 40.0283C30.7696 40.0283 39.5 31.2979 39.5 20.5283C39.5 9.75877 30.7696 1.02832 20 1.02832C9.23045 1.02832 0.5 9.75877 0.5 20.5283C0.5 31.2979 9.23045 40.0283 20 40.0283Z" stroke="#D1DADE"/>
<path fill-rule="evenodd" clip-rule="evenodd" d="M23.632 13.5473C22.4675 13.5138 21.2603 13.4971 20.0103 13.4971C17.2127 13.4971 14.8801 13.564 13.0126 13.698C13.0051 13.698 12.9419 13.7035 12.8228 13.7147C12.7038 13.7259 12.6182 13.737 12.5661 13.7482C12.514 13.7593 12.4266 13.7761 12.3039 13.7984C12.1811 13.8207 12.0751 13.8505 11.9858 13.8877C11.8965 13.9249 11.7923 13.9733 11.6733 14.0328C11.5542 14.0923 11.4389 14.1648 11.3273 14.2504C11.2157 14.336 11.1078 14.4346 11.0036 14.5462L10.8474 14.7359C10.7432 14.8624 10.6242 15.0912 10.4902 15.4223C10.3563 15.7534 10.2633 16.1236 10.2112 16.5328C10.0698 17.6117 10.0029 18.6905 10.0103 19.7694V21.7337C10.0178 22.0387 10.0382 22.461 10.0717 23.0004C10.1052 23.5398 10.1517 24.0477 10.2112 24.5239C10.2633 24.9331 10.3619 25.3088 10.507 25.6511C10.6521 25.9933 10.76 26.211 10.8306 26.304C10.9013 26.397 10.959 26.4658 11.0036 26.5105C11.1822 26.6965 11.3924 26.849 11.6342 26.968C11.876 27.0871 12.0658 27.1652 12.2034 27.2024C12.3411 27.2396 12.5438 27.2768 12.8117 27.314L13.2134 27.3587L13.7603 27.4033C14.1175 27.4256 14.8634 27.4535 15.998 27.487C17.1327 27.5205 18.4701 27.5447 20.0103 27.5596C22.8079 27.5596 25.1405 27.4889 27.0081 27.3475C27.0155 27.3475 27.0769 27.3419 27.1922 27.3308C27.3076 27.3196 27.3931 27.3085 27.4489 27.2973C27.5047 27.2861 27.594 27.2694 27.7168 27.2471C27.8396 27.2247 27.9456 27.195 28.0349 27.1578C28.1242 27.1206 28.2283 27.0741 28.3474 27.0183C28.4664 26.9625 28.5818 26.8918 28.6934 26.8062C28.805 26.7207 28.9129 26.6221 29.017 26.5105L29.1733 26.3207C29.2774 26.1942 29.3965 25.9654 29.5304 25.6343C29.6643 25.3032 29.7573 24.9331 29.8094 24.5239C29.9508 23.445 30.0178 22.3661 30.0103 21.2872V19.323C30.0029 19.0179 29.9824 18.5957 29.9489 18.0562C29.9155 17.5168 29.869 17.009 29.8094 16.5328C29.7573 16.1236 29.6588 15.7478 29.5137 15.4055C29.3686 15.0633 29.2607 14.8457 29.19 14.7526C29.1193 14.6596 29.0617 14.5908 29.017 14.5462C28.9129 14.4346 28.805 14.336 28.6934 14.2504C28.5818 14.1648 28.4664 14.0923 28.3474 14.0328C28.2283 13.9733 28.1242 13.9249 28.0349 13.8877C27.9456 13.8505 27.8396 13.8207 27.7168 13.7984C27.594 13.7761 27.5066 13.7593 27.4545 13.7482C27.4024 13.737 27.3169 13.7259 27.1978 13.7147C27.0788 13.7035 27.0155 13.698 27.0081 13.698L26.1934 13.6533C25.6502 13.6161 24.7964 13.5808 23.632 13.5473ZM23.3474 20.3274L17.9456 23.1176V17.5038L23.3474 20.3274Z" fill="#00B2A9"/>
</g>
<defs>
<clipPath id="clip0_1_1071">
<rect width="40" height="41" fill="white"/>
</clipPath>
</defs>
</svg>
