<svg width="40" height="41" viewBox="0 0 40 41" fill="none" xmlns="http://www.w3.org/2000/svg">
<g clip-path="url(#clip0_1_1065)">
<path d="M20 40.0283C30.7696 40.0283 39.5 31.2979 39.5 20.5283C39.5 9.75877 30.7696 1.02832 20 1.02832C9.23045 1.02832 0.5 9.75877 0.5 20.5283C0.5 31.2979 9.23045 40.0283 20 40.0283Z" stroke="#D1DADE"/>
<path fill-rule="evenodd" clip-rule="evenodd" d="M30.5045 24.7734C30.5491 23.9877 30.5714 22.5725 30.5714 20.5279C30.5714 18.4833 30.5491 17.0681 30.5045 16.2824C30.4152 14.4252 29.8616 12.9877 28.8438 11.9699C27.8259 10.952 26.3884 10.3984 24.5312 10.3091C23.7455 10.2645 22.3304 10.2422 20.2857 10.2422C18.2411 10.2422 16.8259 10.2645 16.0402 10.3091C14.183 10.3984 12.7455 10.952 11.7277 11.9699C10.7098 12.9877 10.1562 14.4252 10.067 16.2824C10.0223 17.0681 10 18.4833 10 20.5279C10 22.5725 10.0223 23.9877 10.067 24.7734C10.1562 26.6306 10.7098 28.0681 11.7277 29.0859C12.7455 30.1038 14.183 30.6574 16.0402 30.7466C16.8259 30.7913 18.2411 30.8136 20.2857 30.8136C22.3304 30.8136 23.7455 30.7913 24.5312 30.7466C26.3884 30.6574 27.8259 30.1038 28.8438 29.0859C29.8616 28.0681 30.4152 26.6306 30.5045 24.7734ZM20.2857 12.0901C20.2232 12.0901 19.8817 12.0879 19.2612 12.0834C18.6406 12.079 18.1696 12.079 17.8482 12.0834C17.5268 12.0879 17.096 12.1013 16.5558 12.1236C16.0156 12.1459 15.5558 12.1906 15.1763 12.2575C14.7969 12.3245 14.4777 12.4071 14.2187 12.5053C13.7723 12.6839 13.3795 12.9428 13.0402 13.2821C12.7009 13.6214 12.442 14.0142 12.2634 14.4607C12.1652 14.7196 12.0826 15.0388 12.0156 15.4182C11.9487 15.7977 11.904 16.2575 11.8817 16.7977C11.8594 17.3379 11.846 17.7687 11.8415 18.0901C11.837 18.4115 11.837 18.8825 11.8415 19.5031C11.846 20.1236 11.8482 20.4651 11.8482 20.5276C11.8482 20.5901 11.846 20.9316 11.8415 21.5522C11.837 22.1727 11.837 22.6437 11.8415 22.9651C11.846 23.2865 11.8594 23.7174 11.8817 24.2575C11.904 24.7977 11.9487 25.2575 12.0156 25.637C12.0826 26.0165 12.1652 26.3357 12.2634 26.5946C12.442 27.041 12.7009 27.4339 13.0402 27.7732C13.3795 28.1124 13.7723 28.3714 14.2187 28.5499C14.4777 28.6482 14.7969 28.7307 15.1763 28.7977C15.5558 28.8647 16.0156 28.9093 16.5558 28.9316C17.096 28.954 17.5268 28.9674 17.8482 28.9718C18.1696 28.9763 18.6406 28.9763 19.2612 28.9718C19.8817 28.9674 20.2232 28.9651 20.2857 28.9651C20.3482 28.9651 20.6897 28.9674 21.3103 28.9718C21.9308 28.9763 22.4018 28.9763 22.7232 28.9718C23.0446 28.9674 23.4754 28.954 24.0156 28.9316C24.5558 28.9093 25.0156 28.8647 25.3951 28.7977C25.7745 28.7307 26.0937 28.6482 26.3527 28.5499C26.7991 28.3714 27.192 28.1124 27.5312 27.7732C27.8705 27.4339 28.1295 27.041 28.308 26.5946C28.4062 26.3357 28.4888 26.0165 28.5558 25.637C28.6228 25.2575 28.6674 24.7977 28.6897 24.2575C28.712 23.7174 28.7254 23.2865 28.7299 22.9651C28.7344 22.6437 28.7344 22.1727 28.7299 21.5522C28.7254 20.9316 28.7232 20.5901 28.7232 20.5276C28.7232 20.4651 28.7254 20.1236 28.7299 19.5031C28.7344 18.8825 28.7344 18.4115 28.7299 18.0901C28.7254 17.7687 28.712 17.3379 28.6897 16.7977C28.6674 16.2575 28.6228 15.7977 28.5558 15.4182C28.4888 15.0388 28.4062 14.7196 28.308 14.4607C28.1295 14.0142 27.8705 13.6214 27.5312 13.2821C27.192 12.9428 26.7991 12.6839 26.3527 12.5053C26.0937 12.4071 25.7745 12.3245 25.3951 12.2575C25.0156 12.1906 24.5558 12.1459 24.0156 12.1236C23.4754 12.1013 23.0446 12.0879 22.7232 12.0834C22.4018 12.079 21.9308 12.079 21.3103 12.0834C20.6897 12.0879 20.3482 12.0901 20.2857 12.0901ZM26.6473 15.9074C26.8884 15.6663 27.0089 15.3761 27.0089 15.0368C27.0089 14.6975 26.8884 14.4074 26.6473 14.1663C26.4062 13.9252 26.1161 13.8047 25.7768 13.8047C25.4375 13.8047 25.1473 13.9252 24.9062 14.1663C24.6652 14.4074 24.5446 14.6975 24.5446 15.0368C24.5446 15.3761 24.6652 15.6663 24.9062 15.9074C25.1473 16.1484 25.4375 16.269 25.7768 16.269C26.1161 16.269 26.4062 16.1484 26.6473 15.9074ZM25.5625 20.5279C25.5625 21.9922 25.0491 23.2377 24.0223 24.2645C22.9955 25.2913 21.75 25.8047 20.2857 25.8047C18.8214 25.8047 17.5759 25.2913 16.5491 24.2645C15.5223 23.2377 15.0089 21.9922 15.0089 20.5279C15.0089 19.0636 15.5223 17.8181 16.5491 16.7913C17.5759 15.7645 18.8214 15.2511 20.2857 15.2511C21.75 15.2511 22.9955 15.7645 24.0223 16.7913C25.0491 17.8181 25.5625 19.0636 25.5625 20.5279ZM23.7143 20.5282C23.7143 19.5817 23.3795 18.7737 22.7098 18.1041C22.0402 17.4344 21.2321 17.0996 20.2857 17.0996C19.3393 17.0996 18.5313 17.4344 17.8616 18.1041C17.192 18.7737 16.8571 19.5817 16.8571 20.5282C16.8571 21.4746 17.192 22.2826 17.8616 22.9523C18.5313 23.6219 19.3393 23.9567 20.2857 23.9567C21.2321 23.9567 22.0402 23.6219 22.7098 22.9523C23.3795 22.2826 23.7143 21.4746 23.7143 20.5282Z" fill="#00B2A9"/>
</g>
<defs>
<clipPath id="clip0_1_1065">
<rect width="40" height="41" fill="white"/>
</clipPath>
</defs>
</svg>
