<svg width="135" height="18" viewBox="0 0 135 18" fill="none" xmlns="http://www.w3.org/2000/svg">
<g clip-path="url(#clip0_1_580)">
<path d="M113.954 17.1235C114.254 17.1235 114.722 17.0601 114.956 16.9744V15.5241C114.697 15.5804 114.433 15.6089 114.168 15.6091C113.4 15.6091 113.037 15.2042 113.037 14.0097V0.977034H109.752V2.42809H111.246V14.0939C111.246 16.0789 112.035 17.1235 113.954 17.1235ZM118.39 14.1163V7.37553H120.63V5.92522H118.39V3.11036H116.599V5.92522H114.893V7.37553H116.599V14.2013C116.599 16.1631 117.473 17.1235 119.543 17.1235C119.863 17.1235 120.374 17.0601 120.63 16.9744V15.5241C120.328 15.5809 120.021 15.6094 119.713 15.6091C118.817 15.6091 118.39 15.2885 118.39 14.1163ZM89.5111 7.09964C91.8577 7.09964 93.0731 8.76246 93.2647 10.6191H85.5658C85.7791 8.59245 87.1436 7.09964 89.5111 7.09964ZM98.1921 11.4498C98.1921 8.93321 99.7922 7.12052 102.052 7.12052C104.335 7.12052 105.892 8.97497 105.892 11.4498C105.892 13.9239 104.335 15.7806 102.052 15.7806C99.7922 15.7806 98.1921 13.9664 98.1921 11.4498ZM126.41 15.5241H124.917V10.5759C124.917 8.27181 126.091 7.12052 128.159 7.12052C130.015 7.12052 131.21 8.27256 131.21 10.5759V15.5241H129.716V16.9744H134.494V15.5241H133.001V10.5759C133.001 7.82442 131.359 5.60608 128.373 5.60608C126.816 5.60608 125.664 6.20261 124.917 7.16302V0.977034H121.633V2.42809H123.125V15.5248H121.633V16.9751H126.41V15.5248V15.5241ZM71.5102 7.65366V2.47059H73.1096V0.977034H68.0555V2.47059H69.655V15.4801H68.0555V16.9736H73.1111V15.4801H71.5109V9.10471H79.5305V15.4816H77.931V16.9751H82.9858V15.4801H81.3864V2.47059H82.9858V0.977034H77.931V2.47059H79.5305V7.65292L71.5102 7.65366ZM94.8008 14.0097H93.0097C92.3692 15.1184 91.2179 15.8007 89.576 15.8007C87.0795 15.8007 85.7366 14.2863 85.5658 12.0471H95.0573V11.2582C95.0573 7.8878 92.9031 5.60608 89.5111 5.60608C86.099 5.60608 83.7322 8.01605 83.7322 11.4498C83.7322 14.9052 86.099 17.2943 89.5111 17.2943C92.0068 17.2943 93.9269 16.0356 94.8008 14.0097ZM105.828 16.9744H109.113V15.5241H107.619V7.37479H109.113V5.92522H105.828V7.56866C104.89 6.35323 103.481 5.60683 101.817 5.60683C98.6827 5.60683 96.3585 8.12343 96.3585 11.4506C96.3585 14.7784 98.6827 17.295 101.817 17.295C103.481 17.295 104.89 16.5479 105.828 15.3325V16.9744Z" fill="black"/>
<path d="M6.22177 0.55081C5.91073 0.550309 5.60267 0.611394 5.31536 0.730542C5.02805 0.849691 4.76717 1.02454 4.54777 1.24502L1.19827 4.59601C0.754899 5.04084 0.506248 5.64348 0.506947 6.27153C0.507646 6.89958 0.757638 7.50167 1.202 7.94551L10.6547 17.3997L20.1097 7.94551C20.3295 7.72549 20.5039 7.46433 20.6228 7.17692C20.7417 6.88951 20.8029 6.58149 20.8027 6.27045C20.8026 5.95941 20.7412 5.65145 20.622 5.36414C20.5028 5.07684 20.3282 4.81583 20.1082 4.59601L16.7609 1.248C16.541 1.02734 16.2796 0.852319 15.9919 0.732986C15.7041 0.613653 15.3956 0.552364 15.0841 0.552641C14.7725 0.552919 14.4641 0.614756 14.1766 0.734601C13.889 0.854446 13.628 1.02993 13.4084 1.25098L10.6562 4.00396L7.89876 1.24651C7.67908 1.02573 7.41785 0.850653 7.13015 0.731374C6.84245 0.612095 6.53397 0.55098 6.22252 0.551556M37.3836 0.976581H42.6107L45.2973 11.3002L48.177 0.976581H53.2102L47.8355 16.9523H42.7382L37.3836 0.976581ZM38.4723 10.7455C38.1949 14.9472 35.4225 17.3997 30.8367 17.3997C25.7386 17.3997 22.6248 14.1576 22.6248 8.97601C22.6248 3.74894 25.7603 0.529186 30.7301 0.529186C35.3576 0.529186 38.0882 2.87503 38.3872 7.01269H33.5017C33.3526 5.39163 32.4354 4.53934 30.7927 4.53934C28.7876 4.53934 27.7862 6.01052 27.7862 8.97601C27.7862 11.8766 28.8734 13.3903 30.9418 13.3903C32.4995 13.3903 33.4801 12.4508 33.6299 10.7455H38.4723ZM57.3053 11.9609C57.5619 13.1562 58.2441 13.5827 59.6512 13.5827C60.8882 13.5827 61.5713 13.1345 61.5713 12.4299C61.5713 11.4277 60.6541 11.3427 58.7557 10.8521C56.5373 10.2772 55.1086 9.78579 54.448 9.31603C53.2102 8.44212 52.6137 7.20432 52.6137 5.62651C52.6129 2.53501 55.0438 0.529186 59.2888 0.529186C63.4056 0.529186 65.8364 2.34188 66.1146 5.56313H61.2723C61.1015 4.60347 60.4408 4.15458 59.2038 4.15458C58.1166 4.15458 57.582 4.51771 57.582 5.24324C57.582 6.09627 58.4149 6.24541 59.9509 6.6503C61.9344 7.16257 63.5122 7.48245 64.5144 8.16473C65.9222 9.10352 66.562 10.2556 66.562 11.8975C66.562 15.373 64.067 17.3997 59.4379 17.3997C55.1511 17.3997 52.6338 15.3738 52.3139 11.9609H57.3053Z" fill="#CC0000"/>
</g>
<defs>
<clipPath id="clip0_1_580">
<rect width="134.53" height="17.8673" fill="white" transform="scale(1.00349)"/>
</clipPath>
</defs>
</svg>
