<svg width="30" height="30" viewBox="0 0 30 30" fill="none" xmlns="http://www.w3.org/2000/svg">
<path opacity="0.2" d="M23.4375 11.25H15L6.5625 3.75H23.4375V11.25ZM6.5625 18.75L15 27.1875V18.75H23.4375L15 11.25H6.5625V18.75Z" fill="#BCBDBF"/>
<path d="M24.375 11.25V3.75C24.375 3.50136 24.2762 3.26291 24.1004 3.08709C23.9246 2.91127 23.6861 2.8125 23.4375 2.8125H6.5625C6.37189 2.81206 6.18568 2.86973 6.02868 2.97783C5.87168 3.08592 5.75136 3.23931 5.68377 3.41753C5.61617 3.59575 5.6045 3.79035 5.65033 3.97537C5.69615 4.16039 5.79728 4.32705 5.94024 4.45313L12.5391 10.3125H6.5625C6.31386 10.3125 6.07541 10.4113 5.89959 10.5871C5.72378 10.7629 5.625 11.0014 5.625 11.25V18.75C5.62491 18.8732 5.64907 18.9951 5.69613 19.1089C5.74318 19.2227 5.81219 19.3262 5.89922 19.4133L14.3367 27.8508C14.4678 27.982 14.6349 28.0715 14.8169 28.1077C14.9989 28.1439 15.1875 28.1254 15.3589 28.0543C15.5303 27.9833 15.6767 27.863 15.7797 27.7087C15.8827 27.5544 15.9376 27.373 15.9375 27.1875V19.6875H23.4375C23.6281 19.6879 23.8143 19.6303 23.9713 19.5222C24.1283 19.4141 24.2486 19.2607 24.3162 19.0825C24.3838 18.9043 24.3955 18.7097 24.3497 18.5246C24.3039 18.3396 24.2027 18.173 24.0598 18.0469L17.4609 12.1875H23.4375C23.6861 12.1875 23.9246 12.0887 24.1004 11.9129C24.2762 11.7371 24.375 11.4986 24.375 11.25ZM20.9766 17.8125H15C14.7514 17.8125 14.5129 17.9113 14.3371 18.0871C14.1613 18.2629 14.0625 18.5014 14.0625 18.75V24.9246L7.5 18.3621V12.1875H14.6484L20.9766 17.8125ZM22.5 10.3125H15.3516L9.02344 4.6875H22.5V10.3125Z" fill="#BCBDBF"/>
</svg>
