<svg width="30" height="30" viewBox="0 0 30 30" fill="none" xmlns="http://www.w3.org/2000/svg">
<path opacity="0.2" d="M28.125 14.5312C28.1254 15.6948 27.7649 16.8298 27.0933 17.7799C26.4217 18.73 25.472 19.4485 24.375 19.8363V20.625C24.375 21.8682 23.8811 23.0605 23.0021 23.9396C22.123 24.8186 20.9307 25.3125 19.6875 25.3125C18.4443 25.3125 17.252 24.8186 16.3729 23.9396C15.4939 23.0605 15 21.8682 15 20.625C15 21.8682 14.5061 23.0605 13.6271 23.9396C12.748 24.8186 11.5557 25.3125 10.3125 25.3125C9.0693 25.3125 7.87701 24.8186 6.99794 23.9396C6.11886 23.0605 5.625 21.8682 5.625 20.625V19.8363C4.52708 19.4493 3.57628 18.7312 2.90371 17.781C2.23115 16.8308 1.86996 15.6954 1.86996 14.5312C1.86996 13.3671 2.23115 12.2317 2.90371 11.2815C3.57628 10.3313 4.52708 9.61317 5.625 9.22617V8.4375C5.625 7.1943 6.11886 6.00201 6.99794 5.12294C7.87701 4.24386 9.0693 3.75 10.3125 3.75C11.5557 3.75 12.748 4.24386 13.6271 5.12294C14.5061 6.00201 15 7.1943 15 8.4375C15 7.1943 15.4939 6.00201 16.3729 5.12294C17.252 4.24386 18.4443 3.75 19.6875 3.75C20.9307 3.75 22.123 4.24386 23.0021 5.12294C23.8811 6.00201 24.375 7.1943 24.375 8.4375V9.22617C25.472 9.61401 26.4217 10.3325 27.0933 11.2826C27.7649 12.2327 28.1254 13.3677 28.125 14.5312Z" fill="#BCBDBF"/>
<path d="M29.0625 14.5311C29.0613 13.2893 28.7084 12.0732 28.0448 11.0236C27.3811 9.97404 26.4338 9.13383 25.3125 8.60024V8.43735C25.3114 7.2294 24.9215 6.05389 24.2005 5.08475C23.4794 4.1156 22.4656 3.40431 21.3089 3.05613C20.1522 2.70794 18.9142 2.74136 17.778 3.15142C16.6417 3.56149 15.6677 4.32643 15 5.33305C14.3323 4.32643 13.3583 3.56149 12.222 3.15142C11.0858 2.74136 9.84779 2.70794 8.69111 3.05613C7.53443 3.40431 6.52057 4.1156 5.79953 5.08475C5.07849 6.05389 4.68858 7.2294 4.6875 8.43735V8.60024C3.56524 9.13237 2.61703 9.97205 1.95306 11.0217C1.28909 12.0714 0.936621 13.2879 0.936621 14.5299C0.936621 15.772 1.28909 16.9885 1.95306 18.0381C2.61703 19.0878 3.56524 19.9275 4.6875 20.4596V20.6248C4.68858 21.8328 5.07849 23.0083 5.79953 23.9774C6.52057 24.9466 7.53443 25.6579 8.69111 26.0061C9.84779 26.3543 11.0858 26.3208 12.222 25.9108C13.3583 25.5007 14.3323 24.7358 15 23.7291C15.6677 24.7358 16.6417 25.5007 17.778 25.9108C18.9142 26.3208 20.1522 26.3543 21.3089 26.0061C22.4656 25.6579 23.4794 24.9466 24.2005 23.9774C24.9215 23.0083 25.3114 21.8328 25.3125 20.6248V20.4596C26.4336 19.9264 27.3808 19.0866 28.0445 18.0374C28.7081 16.9882 29.0611 15.7726 29.0625 14.5311ZM10.3125 24.3748C9.38783 24.3747 8.49581 24.033 7.80776 23.4152C7.11972 22.7975 6.68417 21.9473 6.58476 21.028C6.88793 21.0712 7.19376 21.0932 7.5 21.0936H8.4375C8.68614 21.0936 8.9246 20.9948 9.10041 20.819C9.27623 20.6432 9.375 20.4047 9.375 20.1561C9.375 19.9075 9.27623 19.669 9.10041 19.4932C8.9246 19.3174 8.68614 19.2186 8.4375 19.2186H7.5C6.39323 19.2199 5.32171 18.8295 4.47513 18.1166C3.62855 17.4037 3.06154 16.4142 2.87447 15.3234C2.6874 14.2326 2.89234 13.1107 3.45302 12.1565C4.01369 11.2022 4.89393 10.4771 5.93789 10.1096C6.12055 10.0449 6.27869 9.92526 6.39054 9.76703C6.50239 9.6088 6.56247 9.41979 6.5625 9.22602V8.43735C6.5625 7.44279 6.95759 6.48896 7.66085 5.7857C8.36411 5.08244 9.31794 4.68735 10.3125 4.68735C11.3071 4.68735 12.2609 5.08244 12.9642 5.7857C13.6674 6.48896 14.0625 7.44279 14.0625 8.43735V16.4366C13.033 15.5107 11.6971 14.9988 10.3125 14.9998C10.0639 14.9998 9.8254 15.0986 9.64959 15.2744C9.47377 15.4502 9.375 15.6887 9.375 15.9373C9.375 16.186 9.47377 16.4244 9.64959 16.6003C9.8254 16.7761 10.0639 16.8748 10.3125 16.8748C11.3071 16.8748 12.2609 17.2699 12.9642 17.9732C13.6674 18.6765 14.0625 19.6303 14.0625 20.6248C14.0625 21.6194 13.6674 22.5732 12.9642 23.2765C12.2609 23.9798 11.3071 24.3748 10.3125 24.3748ZM22.5 19.2186H21.5625C21.3139 19.2186 21.0754 19.3174 20.8996 19.4932C20.7238 19.669 20.625 19.9075 20.625 20.1561C20.625 20.4047 20.7238 20.6432 20.8996 20.819C21.0754 20.9948 21.3139 21.0936 21.5625 21.0936H22.5C22.8062 21.0932 23.1121 21.0712 23.4152 21.028C23.3373 21.7483 23.0525 22.4306 22.595 22.9925C22.1376 23.5543 21.5272 23.9716 20.8377 24.1939C20.1481 24.4163 19.4089 24.4341 18.7094 24.2452C18.01 24.0563 17.3802 23.6689 16.8962 23.1297C16.4123 22.5905 16.0949 21.9227 15.9824 21.207C15.87 20.4913 15.9672 19.7583 16.2625 19.0967C16.5577 18.435 17.0383 17.8731 17.6461 17.4788C18.254 17.0845 18.963 16.8747 19.6875 16.8748C19.9361 16.8748 20.1746 16.7761 20.3504 16.6003C20.5262 16.4244 20.625 16.186 20.625 15.9373C20.625 15.6887 20.5262 15.4502 20.3504 15.2744C20.1746 15.0986 19.9361 14.9998 19.6875 14.9998C18.3029 14.9988 16.967 15.5107 15.9375 16.4366V8.43735C15.9375 7.44279 16.3326 6.48896 17.0359 5.7857C17.7391 5.08244 18.6929 4.68735 19.6875 4.68735C20.6821 4.68735 21.6359 5.08244 22.3391 5.7857C23.0424 6.48896 23.4375 7.44279 23.4375 8.43735V9.22602C23.4375 9.41979 23.4976 9.6088 23.6095 9.76703C23.7213 9.92526 23.8794 10.0449 24.0621 10.1096C25.1061 10.4771 25.9863 11.2022 26.547 12.1565C27.1077 13.1107 27.3126 14.2326 27.1255 15.3234C26.9385 16.4142 26.3714 17.4037 25.5249 18.1166C24.6783 18.8295 23.6068 19.2199 22.5 19.2186ZM24.375 13.1248C24.375 13.3735 24.2762 13.6119 24.1004 13.7878C23.9246 13.9636 23.6861 14.0623 23.4375 14.0623H22.9688C21.8499 14.0623 20.7768 13.6179 19.9856 12.8267C19.1945 12.0355 18.75 10.9625 18.75 9.8436V9.37485C18.75 9.12621 18.8488 8.88775 19.0246 8.71194C19.2004 8.53612 19.4389 8.43735 19.6875 8.43735C19.9361 8.43735 20.1746 8.53612 20.3504 8.71194C20.5262 8.88775 20.625 9.12621 20.625 9.37485V9.8436C20.625 10.4652 20.8719 11.0613 21.3115 11.5009C21.751 11.9404 22.3471 12.1873 22.9688 12.1873H23.4375C23.6861 12.1873 23.9246 12.2861 24.1004 12.4619C24.2762 12.6378 24.375 12.8762 24.375 13.1248ZM7.03125 14.0623H6.5625C6.31386 14.0623 6.0754 13.9636 5.89959 13.7878C5.72377 13.6119 5.625 13.3735 5.625 13.1248C5.625 12.8762 5.72377 12.6378 5.89959 12.4619C6.0754 12.2861 6.31386 12.1873 6.5625 12.1873H7.03125C7.65285 12.1873 8.24899 11.9404 8.68853 11.5009C9.12807 11.0613 9.375 10.4652 9.375 9.8436V9.37485C9.375 9.12621 9.47377 8.88775 9.64959 8.71194C9.8254 8.53612 10.0639 8.43735 10.3125 8.43735C10.5611 8.43735 10.7996 8.53612 10.9754 8.71194C11.1512 8.88775 11.25 9.12621 11.25 9.37485V9.8436C11.25 10.9625 10.8055 12.0355 10.0144 12.8267C9.22319 13.6179 8.15013 14.0623 7.03125 14.0623Z" fill="#BCBDBF"/>
</svg>
