<svg width="40" height="41" viewBox="0 0 40 41" fill="none" xmlns="http://www.w3.org/2000/svg">
<g clip-path="url(#clip0_1_1053)">
<path d="M20 40.0283C30.7696 40.0283 39.5 31.2979 39.5 20.5283C39.5 9.75877 30.7696 1.02832 20 1.02832C9.23045 1.02832 0.5 9.75877 0.5 20.5283C0.5 31.2979 9.23045 40.0283 20 40.0283Z" stroke="#D1DADE"/>
<path fill-rule="evenodd" clip-rule="evenodd" d="M16.7165 14.7323C16.7232 15.2211 16.5541 15.6296 16.2093 15.9577C15.8644 16.2859 15.4107 16.4499 14.8482 16.4499H14.8281C14.279 16.4499 13.8371 16.2859 13.5022 15.9577C13.1674 15.6296 13 15.2211 13 14.7323C13 14.2367 13.1724 13.8266 13.5173 13.5018C13.8622 13.177 14.3125 13.0146 14.8683 13.0146C15.4241 13.0146 15.8694 13.177 16.2042 13.5018C16.5391 13.8266 16.7098 14.2367 16.7165 14.7323ZM16.5056 17.8057V27.7599H13.1908V17.8057H16.5056ZM28.4286 27.7605V22.0551C28.4286 20.5886 28.0804 19.4753 27.3839 18.7153C26.6875 17.9552 25.7667 17.5752 24.6217 17.5752C24.1998 17.5752 23.8164 17.6271 23.4715 17.7309C23.1267 17.8347 22.8354 17.9803 22.5977 18.1678C22.3599 18.3553 22.1708 18.5294 22.0301 18.6901C21.8965 18.8428 21.766 19.0197 21.6384 19.2207V17.8062H18.3337L18.3438 18.2884C18.3505 18.6098 18.3538 19.6009 18.3538 21.2616C18.3538 22.9223 18.3471 25.0886 18.3337 27.7605H21.6384V22.2058C21.6384 21.8643 21.6752 21.593 21.7489 21.3922C21.8895 21.0506 22.1021 20.7644 22.3867 20.5333C22.6713 20.3023 23.0246 20.1868 23.4464 20.1868C24.0223 20.1868 24.4459 20.386 24.7171 20.7845C24.9883 21.1829 25.1239 21.7337 25.1239 22.4368V27.7605H28.4286Z" fill="#00B2A9"/>
</g>
<defs>
<clipPath id="clip0_1_1053">
<rect width="40" height="41" fill="white"/>
</clipPath>
</defs>
</svg>
