<svg width="14" height="11" viewBox="0 0 14 11" fill="none" xmlns="http://www.w3.org/2000/svg">
<g opacity="0.5">
<g clip-path="url(#clip0_1_705)">
<path opacity="0.7" fill-rule="evenodd" clip-rule="evenodd" d="M13.6822 0.777505C13.879 0.974408 13.9896 1.24143 13.9896 1.51986C13.9896 1.79827 13.879 2.0653 13.6822 2.26221L5.81211 10.1323C5.7081 10.2363 5.58462 10.3188 5.44872 10.3751C5.31282 10.4315 5.16716 10.4605 5.02006 10.4605C4.87295 10.4605 4.72729 10.4315 4.59139 10.3751C4.45549 10.3188 4.33201 10.2363 4.22801 10.1323L0.317806 6.22281C0.217521 6.12594 0.137529 6.01008 0.0824996 5.88197C0.0274701 5.75387 -0.00149543 5.61609 -0.00270694 5.47668C-0.00391844 5.33726 0.0226485 5.19899 0.0754436 5.06995C0.128238 4.94091 0.206204 4.82367 0.304792 4.72509C0.403379 4.6265 0.520613 4.54853 0.649654 4.49574C0.778696 4.44294 0.91696 4.41638 1.05638 4.41759C1.1958 4.4188 1.33358 4.44777 1.46168 4.50279C1.58979 4.55783 1.70565 4.63782 1.80251 4.73811L5.01971 7.9553L12.1968 0.777505C12.2943 0.67993 12.4101 0.602526 12.5375 0.549717C12.6649 0.496908 12.8016 0.469727 12.9395 0.469727C13.0775 0.469727 13.214 0.496908 13.3415 0.549717C13.4689 0.602526 13.5847 0.67993 13.6822 0.777505Z" fill="white"/>
</g>
</g>
<defs>
<clipPath id="clip0_1_705">
<rect width="14" height="10.5" fill="white"/>
</clipPath>
</defs>
</svg>
