<svg width="120" height="24" viewBox="0 0 120 24" fill="none" xmlns="http://www.w3.org/2000/svg">
<g clip-path="url(#clip0_1_1145)">
<mask id="mask0_1_1145" style="mask-type:luminance" maskUnits="userSpaceOnUse" x="0" y="0" width="120" height="24">
<path d="M120 0H0V24H120V0Z" fill="white"/>
</mask>
<g mask="url(#mask0_1_1145)">
<path fill-rule="evenodd" clip-rule="evenodd" d="M17.6046 2.81761C15.5925 0.795755 13.054 0 9.69369 0C4.35356 0 1.12398 3.14473 1.12315 7.45063C1.01269 9.18549 1.59444 10.893 2.73959 12.1952C4.03683 13.3953 5.693 14.1291 7.44904 14.282L10.2863 14.6807C10.8578 14.713 11.4026 14.9345 11.8357 15.3108C12.1564 15.7 12.3185 16.1971 12.2893 16.7017C12.2893 18.0627 11.1959 18.8226 8.92723 18.8226C7.05093 18.8226 4.90644 18.3922 3.68727 17.1662L0 20.8811C2.37211 23.3325 5.30703 23.9958 8.90074 23.9967C13.8403 23.9967 17.9638 21.378 17.9638 16.5826C17.9638 14.3943 17.4688 12.6372 16.2165 11.4111C14.9289 10.2748 13.3095 9.58903 11.6015 9.45669L8.76591 9.05709C8.16394 9.01826 7.59357 8.7726 7.15026 8.36126C6.8585 8.0722 6.69269 7.67854 6.68925 7.26668C6.68925 6.23785 7.51278 5.07752 9.5232 5.07752C9.58097 5.07752 9.64174 5.0772 9.70517 5.07687C10.7645 5.0713 12.575 5.0618 13.9736 6.46759L17.6046 2.81761ZM37.0954 0.394548V5.56612H31.324V23.9958L25.5593 24V5.56695H19.7905V0.394548H37.0954ZM45.3862 0.39538L51.9455 11.898L44.9591 23.9958L38.37 24L45.6842 11.9022L38.8261 0.39538H45.3862ZM95.058 5.05671L99.2366 12.5273L103.413 5.05671H105.74L100.314 14.2753L106.13 23.9792L103.803 23.9841L99.2374 16.0358L94.638 23.985L92.3683 23.9859L98.1274 14.2761L92.7326 5.05671H95.058ZM120 6.86297V5.05587H107.098V6.86297H112.544V23.9859L114.549 23.9842V6.86297H120ZM64.5518 5.05587L74.5476 20.1827V5.05587H76.5597V23.9842H74.6493L64.6577 8.79909V23.9792H62.6481V5.05587H64.5518ZM91.0354 6.86463V5.05587H79.3555L79.3547 23.9834H91.044V22.1746H81.3602V15.3407H89.6006V13.5387H81.3519V6.86463H91.0354ZM53.4221 14.5059L58.8938 23.9775L52.5803 23.9726L50.3597 19.7865L53.4221 14.5059ZM53.5239 9.26023L58.6331 0.385392H52.0788L50.3457 3.7532L53.5239 9.26023Z" fill="white"/>
</g>
</g>
<defs>
<clipPath id="clip0_1_1145">
<rect width="120" height="24" fill="white"/>
</clipPath>
</defs>
</svg>
