<svg width="241" height="111" viewBox="0 0 241 111" fill="none" xmlns="http://www.w3.org/2000/svg">
<g opacity="0.6">
<path d="M98.9558 52.2115H89.3549V54.0106C89.3489 55.0284 89.7474 56.0068 90.4628 56.7307C91.1782 57.4546 92.1518 57.8646 93.1695 57.8706H95.5175V62.5072C95.5175 62.8024 95.4002 63.0855 95.1915 63.2942C94.9827 63.5029 94.6996 63.6202 94.4044 63.6202H79.8514C79.4086 63.6202 78.9839 63.4443 78.6708 63.1312C78.3577 62.8181 78.1818 62.3934 78.1818 61.9506V52.2045V48.2254C78.1816 48.0062 78.2246 47.789 78.3083 47.5864C78.392 47.3837 78.5147 47.1995 78.6696 47.0443C78.8245 46.8892 79.0084 46.766 79.2109 46.6819C79.4134 46.5978 79.6304 46.5543 79.8497 46.5541H95.4766V40.5732H79.4166C78.2946 40.5724 77.188 40.8341 76.1853 41.3376C74.7816 42.0213 73.6473 43.1556 72.9636 44.5593C72.4601 45.562 72.1984 46.6686 72.1992 47.7906V62.3811C72.1974 63.5046 72.4592 64.6128 72.9636 65.6167C73.6483 67.0187 74.7824 68.1513 76.1853 68.8341C77.188 69.3376 78.2946 69.5993 79.4166 69.5985H91.534C92.6155 69.5966 93.6522 69.1662 94.417 68.4014C95.1817 67.6367 95.6122 66.6 95.614 65.5185V63.8959C95.6126 63.8607 95.6182 63.8256 95.6304 63.7926C95.6425 63.7596 95.6611 63.7294 95.6849 63.7035C95.7088 63.6777 95.7376 63.6568 95.7695 63.6421C95.8014 63.6274 95.836 63.6191 95.8711 63.6177L95.8749 63.6176H95.8957C99.1409 63.5245 101.228 61.948 101.228 59.2124V52.2115H98.9558Z" fill="white"/>
<path d="M105.606 51.8403C105.606 55.5498 108.713 57.8681 112.932 57.8681H127.12C127.343 57.8515 127.568 57.8833 127.778 57.9613C127.988 58.0393 128.179 58.1617 128.337 58.3202C128.496 58.4787 128.618 58.6695 128.696 58.8796C128.774 59.0897 128.806 59.3141 128.789 59.5377V61.949C128.806 62.1725 128.774 62.3969 128.696 62.607C128.618 62.8171 128.496 63.0079 128.337 63.1664C128.179 63.3249 127.988 63.4473 127.778 63.5253C127.568 63.6034 127.343 63.6351 127.12 63.6185H107.136V69.5994H127.258C128.233 69.6243 129.203 69.4506 130.109 69.0888C131.015 68.7271 131.838 68.1848 132.528 67.4951C133.218 66.8054 133.761 65.9826 134.123 65.0767C134.484 64.1708 134.658 63.2007 134.634 62.2255V59.5846C134.659 58.6097 134.485 57.6399 134.123 56.7343C133.762 55.8286 133.219 55.006 132.53 54.3164C131.84 53.6268 131.018 53.0847 130.112 52.723C129.206 52.3613 128.237 52.1876 127.262 52.2125H113.117C112.894 52.2291 112.669 52.1973 112.459 52.1193C112.249 52.0412 112.058 51.9188 111.9 51.7603C111.741 51.6019 111.619 51.4111 111.541 51.201C111.463 50.9909 111.431 50.7664 111.448 50.5429V47.6672C111.434 47.5176 111.453 47.3669 111.504 47.2256C111.556 47.0843 111.637 46.956 111.743 46.8498C111.85 46.7436 111.978 46.6621 112.119 46.611C112.26 46.5599 112.411 46.5405 112.561 46.5542H132.22V40.5733H115.389C114.313 40.5673 113.279 40.9888 112.514 41.7451C111.748 42.5014 111.315 43.5306 111.309 44.6063V46.2759C111.311 46.3469 111.286 46.4161 111.238 46.4682C111.189 46.5204 111.122 46.5513 111.051 46.5541L111.048 46.5542H111.027C108.156 46.6472 105.606 48.2698 105.606 51.8403Z" fill="white"/>
<path d="M139.503 61.1132V69.5984H145.484V56.2941C145.484 55.6915 145.948 55.5985 146.272 55.9228L160.368 69.6011H168.529L153.595 55.0863L168.524 40.5732H160.363L146.269 54.2515C145.944 54.5759 145.481 54.4837 145.481 53.8802V40.5732H139.503V49.1045C139.503 52.1645 141.497 54.0193 145.069 54.9932C145.208 55.0393 145.208 55.1784 145.069 55.2254C141.497 56.1985 139.503 58.0532 139.503 61.1132Z" fill="white"/>
</g>
</svg>
